<svg width="65" height="64" viewBox="0 0 65 64" fill="none" xmlns="http://www.w3.org/2000/svg">
<path d="M52.0653 52.0098C52.0461 56.0052 52.0696 60.0048 52.0547 64.0002C46.5956 58.1597 41.1387 52.3191 35.6882 46.4722C36.7771 45.6147 37.5392 44.4522 38.3185 43.3259C39.2429 43.5371 40.1161 43.9338 41.0384 44.1386C42.8424 44.546 44.7895 44.2709 46.3864 43.3387C48.5256 42.1185 49.8557 39.7593 50.0286 37.3318C54.7319 42.191 59.3796 47.11 64.0594 51.997C60.0628 52.0162 56.0641 51.9906 52.0653 52.0098ZM15.7608 19.3964C14.8726 18.1549 13.961 16.9327 13.0878 15.6805C12.631 14.9958 12.9597 13.9889 13.739 13.7138C15.1694 13.1954 16.6275 12.756 18.075 12.2888C19.0998 11.9347 19.8705 10.9556 20.0093 9.88266C20.0648 8.25509 19.9901 6.62538 20.052 4.99994C20.0925 4.18508 20.9551 3.59633 21.7343 3.82458C23.1925 4.25547 24.6293 4.75676 26.0832 5.20898C27.2638 5.58228 28.6451 5.07459 29.3325 4.05709C30.0947 2.98839 30.8782 1.93035 31.6468 0.86379C31.8817 0.522489 32.172 0.185455 32.5819 0.0638662C33.1626 -0.143047 33.7924 0.181194 34.1319 0.661148C34.9837 1.80877 35.8206 2.96919 36.666 4.12748C37.3748 5.10446 38.7263 5.56521 39.8813 5.20258C41.3309 4.73542 42.7698 4.24267 44.2216 3.80751C45.0136 3.57713 45.8633 4.19787 45.8975 5.01273C45.9274 6.50805 45.9359 8.00551 45.9231 9.50083C45.8975 10.689 46.6981 11.8302 47.804 12.2504C49.2771 12.7347 50.7673 13.1848 52.2254 13.7116C52.9962 13.9847 53.3185 14.9936 52.8681 15.6698C52.0141 16.9305 51.0811 18.14 50.1951 19.3772C49.5418 20.2987 49.5205 21.6127 50.1097 22.5705C51.0085 23.8376 51.9522 25.0748 52.836 26.3483C53.3079 27.0138 53.0538 28.0356 52.2788 28.3492C50.8249 28.8739 49.339 29.3091 47.8766 29.8146C46.839 30.1623 46.0533 31.1585 45.9381 32.24C45.9124 33.8292 45.9253 35.4184 45.9018 37.0075C45.9082 37.8501 45.0542 38.5285 44.2323 38.296C42.772 37.88 41.3415 37.3616 39.9005 36.9179C38.7711 36.5425 37.424 36.9755 36.7194 37.9333C35.8099 39.1492 34.9389 40.3971 34.0187 41.6066C33.5213 42.27 32.441 42.2764 31.9372 41.6151C31.0127 40.4056 30.1417 39.1599 29.2279 37.9355C28.5063 36.9606 27.1293 36.5447 25.9807 36.9478C24.593 37.3894 23.2138 37.8565 21.8218 38.2789C20.9785 38.5818 20.037 37.9035 20.0349 37.0161C20.0178 35.5506 20.0242 34.0916 20.0285 32.6261C20.0541 31.4059 19.2322 30.2263 18.0793 29.8274C16.6425 29.3389 15.1886 28.8931 13.7539 28.4004C12.964 28.1487 12.6203 27.1141 13.0857 26.4315C13.9269 25.1644 14.8641 23.9635 15.748 22.7262C16.4461 21.7642 16.4439 20.3606 15.7608 19.3964ZM12.49 38.9466C13.2906 42.0055 16.2262 44.3348 19.403 44.3199C20.97 44.3967 22.4154 43.7354 23.8885 43.3216C24.9324 44.7956 25.9978 46.3442 27.6395 47.2167C22.4346 52.8119 17.2275 58.4028 12.0246 63.9938C12.0097 59.9984 12.0353 56.0031 12.014 52.0077C8.01309 51.9821 4.01436 52.0162 0.015625 51.9949C4.17661 47.6519 8.28422 43.2491 12.49 38.9466Z" fill="#4FA4E1"/>
</svg>
