<svg width="65" height="64" viewBox="0 0 65 64" fill="none" xmlns="http://www.w3.org/2000/svg">
<path d="M32.726 64C15.0682 64 0.704102 49.6446 0.704102 32C0.704102 14.3554 15.0693 0 32.726 0C50.3826 0 64.7479 14.3554 64.7479 32C64.7479 49.6446 50.3826 64 32.726 64Z" fill="#4FA4E1"/>
<path d="M32.5766 0C15.0012 0 0.704102 14.2885 0.704102 31.8507C0.704102 40.8895 4.49806 49.0546 10.5698 54.8571L55.5987 9.85893C49.7911 3.79137 41.6215 0 32.5766 0Z" fill="#57B1F1"/>
<path d="M46.7125 45.6128C43.7785 49.5019 40.1371 52.1143 34.5408 52.1143C26.4984 52.1143 20.8478 46.8351 18.7831 38.9459H15.8491C14.5451 38.9459 13.5128 37.8903 13.5128 36.5557C13.5128 35.2779 14.5451 34.1668 15.8491 34.1668H17.9681C17.9149 33.5001 17.9149 32.7778 17.9149 32.0556C17.9149 31.2222 17.9149 30.3333 18.0236 29.4999H15.8503C14.5463 29.4999 13.5139 28.4443 13.5139 27.1653C13.5139 25.8319 14.5463 24.7763 15.8503 24.7763H18.8929C21.0119 17.276 26.6082 11.8857 34.3246 11.8857C40.0839 11.8857 43.5612 14.2191 46.3865 17.5526C46.8223 17.9971 47.257 18.8305 47.257 19.8305C47.257 21.6083 45.79 23.0529 44.0502 23.0529C42.9092 23.0529 42.1485 22.4973 41.7139 21.9417C39.6492 19.386 37.5302 17.9971 34.1605 17.9971C30.2485 17.9971 27.3145 20.6083 25.7921 24.7751H35.4645C36.7141 24.7751 37.7476 25.8307 37.7476 27.1641C37.7476 28.442 36.7153 29.4987 35.4645 29.4987H24.7597C24.6511 30.2765 24.6511 31.1099 24.6511 31.9433C24.6511 32.7211 24.6511 33.4433 24.7054 34.1656H35.4645C36.7141 34.1656 37.7476 35.2768 37.7476 36.5546C37.7476 37.888 36.7153 38.9447 35.4645 38.9447H25.6845C27.2059 43.3894 30.3028 46.0006 34.5963 46.0006C37.8562 46.0006 39.9752 44.3894 42.0399 41.7782C42.5832 41.1115 43.3439 40.667 44.3762 40.667C46.0062 40.667 47.3645 42.0004 47.3645 43.6672C47.3645 44.5017 47.0385 45.2239 46.7125 45.6128Z" fill="white"/>
</svg>
