<svg width="65" height="64" viewBox="0 0 65 64" fill="none" xmlns="http://www.w3.org/2000/svg">
<path d="M64.5831 50.727C64.5831 52.333 63.2802 53.636 61.6721 53.636H3.4503C1.8422 53.636 0.539307 52.333 0.539307 50.727V10C0.539307 8.394 1.8422 7.091 3.4503 7.091H61.6721C63.2802 7.091 64.5831 8.394 64.5831 10V50.727Z" fill="#4FA4E1"/>
<path d="M41.2942 53.637H23.8273V61.091H41.2942V53.637Z" fill="#A5CCE8"/>
<path d="M47.1161 62.546C47.1161 63.349 46.4647 64 45.6601 64H19.4612C18.6577 64 18.0052 63.349 18.0052 62.546C18.0052 61.742 18.6567 61.091 19.4612 61.091H45.6611C46.4647 61.091 47.1161 61.742 47.1161 62.546Z" fill="white"/>
<path d="M64.5831 50.727V42H0.539307V50.728C0.539307 52.334 1.8432 53.637 3.4503 53.637H61.6721C63.2792 53.637 64.5831 52.334 64.5831 50.727Z" fill="white"/>
<path d="M32.5612 51.909C30.4047 51.909 28.6495 50.155 28.6495 48C28.6495 45.845 30.4047 44.091 32.5612 44.091C34.7177 44.091 36.4729 45.844 36.4729 48C36.4729 50.156 34.7177 51.909 32.5612 51.909ZM32.5612 46.091C31.5075 46.091 30.6509 46.947 30.6509 48C30.6509 49.053 31.5075 49.909 32.5612 49.909C33.6149 49.909 34.4715 49.052 34.4715 48C34.4715 46.948 33.6149 46.091 32.5612 46.091Z" fill="#A5CCE8"/>
<path d="M0.539307 10V42H20.2768L55.2097 7.091H3.4503C1.8432 7.091 0.539307 8.394 0.539307 10Z" fill="#57B1F1"/>
<path d="M32.5612 32C41.4038 32 48.5722 24.8366 48.5722 16C48.5722 7.16344 41.4038 0 32.5612 0C23.7186 0 16.5503 7.16344 16.5503 16C16.5503 24.8366 23.7186 32 32.5612 32Z" fill="white"/>
<path d="M42.467 17.306C42.2628 16.814 41.7815 16.493 41.2481 16.493H37.8368V7.26501C37.8368 6.53701 37.2464 5.94701 36.5179 5.94701H28.6035C27.875 5.94701 27.2846 6.53801 27.2846 7.26501V16.493H23.8733C23.3399 16.493 22.8586 16.814 22.6544 17.306C22.4503 17.799 22.5624 18.366 22.9406 18.743L31.6025 26.668C32.1179 27.183 32.9525 27.183 33.4678 26.668L42.1818 18.743C42.559 18.365 42.6721 17.799 42.467 17.306Z" fill="#095993"/>
</svg>
