<svg width="65" height="62" viewBox="0 0 65 62" fill="none" xmlns="http://www.w3.org/2000/svg">
<path d="M64.4175 27C64.4175 21.115 60.78 16.087 55.6335 14.017C51.5547 4.05 44.9662 0 36.8987 0C29.3146 0 22.7411 4.319 19.5179 10.637C18.5552 10.227 17.4965 10 16.3847 10C12.0678 10 8.55837 13.417 8.39526 17.692C3.72607 19.336 0.373779 23.771 0.373779 29C0.373779 35.627 5.75045 41 12.382 41H52.4093C52.4093 41 64.4175 38.774 64.4175 27Z" fill="#4FA4E1"/>
<path d="M36.8987 0C29.3146 0 22.7411 4.319 19.5179 10.637C14.3894 8.455 8.60941 12.08 8.39426 17.692C3.72607 19.336 0.373779 23.771 0.373779 29C0.373779 35.294 5.22409 40.446 11.3923 40.95L48.5127 3.854C45.1794 1.196 41.2577 0 36.8987 0Z" fill="#57B1F1"/>
<path d="M15.8844 58.333C15.8844 60.358 17.5275 61.999 19.5539 61.999H45.2385C47.2648 61.999 48.907 60.357 48.907 58.333V40C48.907 37.975 47.2638 36.333 45.2385 36.333H19.5539C17.5275 36.333 15.8844 37.974 15.8844 40V58.333Z" fill="#0A7CCD"/>
<path d="M63.3338 34.333H57.8301V29.916C57.8301 26.378 54.9501 23.499 51.4087 23.499C47.8682 23.499 44.9873 26.378 44.9873 29.916V36.333H39.4835V29.916C39.4835 23.346 44.8332 18 51.4087 18C57.9842 18 63.3338 23.346 63.3338 29.917V34.333Z" fill="#095993"/>
<path d="M34.9064 44.921C34.9064 43.216 33.5224 41.833 31.8163 41.833C30.1101 41.833 28.7272 43.216 28.7272 44.921C28.7272 46.108 29.4046 47.127 30.3883 47.644L28.7272 56.5H34.9064L33.2443 47.644C34.2279 47.127 34.9064 46.108 34.9064 44.921Z" fill="#084673"/>
</svg>
