<svg width="65" height="64" viewBox="0 0 65 64" fill="none" xmlns="http://www.w3.org/2000/svg">
<path d="M0.20874 3.84C0.20874 1.719 1.92892 0 4.05136 0H32.2306L48.2415 13.44V60.16C48.2415 62.281 46.5214 64 44.3989 64H4.05136C1.92892 64 0.20874 62.281 0.20874 60.16V3.84Z" fill="white"/>
<path d="M32.2307 0V9.6C32.2307 11.721 33.9509 13.44 36.0733 13.44H48.2416L32.2307 0Z" fill="#4FA4E1"/>
<path d="M54.2456 18.5L59.249 8L64.2524 18.5V57H54.2456V18.5Z" fill="white"/>
<path d="M64.2524 24V18.5L59.249 8V24H64.2524Z" fill="#FFEFED"/>
<path d="M64.2524 61C64.2524 62.657 62.9085 64 61.2504 64H57.2477C55.5895 64 54.2456 62.657 54.2456 61V59H64.2524V61Z" fill="#FFEFED"/>
<path d="M39.2355 22C39.2355 22.55 38.7852 23 38.2348 23H23.2246C22.6742 23 22.2239 22.55 22.2239 22C22.2239 21.45 22.6742 21 23.2246 21H38.2348C38.7852 21 39.2355 21.45 39.2355 22Z" fill="#4FA4E1"/>
<path d="M33.2314 27C33.2314 27.55 32.7811 28 32.2307 28H23.2246C22.6742 28 22.2239 27.55 22.2239 27C22.2239 26.45 22.6742 26 23.2246 26H32.2307C32.7811 26 33.2314 26.45 33.2314 27Z" fill="#4FA4E1"/>
<path d="M39.2355 35C39.2355 35.55 38.7852 36 38.2348 36H23.2246C22.6742 36 22.2239 35.55 22.2239 35C22.2239 34.45 22.6742 34 23.2246 34H38.2348C38.7852 34 39.2355 34.45 39.2355 35Z" fill="#4FA4E1"/>
<path d="M33.2314 40C33.2314 40.55 32.7811 41 32.2307 41H23.2246C22.6742 41 22.2239 40.55 22.2239 40C22.2239 39.45 22.6742 39 23.2246 39H32.2307C32.7811 39 33.2314 39.45 33.2314 40Z" fill="#4FA4E1"/>
<path d="M39.2355 48C39.2355 48.55 38.7852 49 38.2348 49H23.2246C22.6742 49 22.2239 48.55 22.2239 48C22.2239 47.45 22.6742 47 23.2246 47H38.2348C38.7852 47 39.2355 47.45 39.2355 48Z" fill="#4FA4E1"/>
<path d="M33.2314 53C33.2314 53.55 32.7811 54 32.2307 54H23.2246C22.6742 54 22.2239 53.55 22.2239 53C22.2239 52.45 22.6742 52 23.2246 52H32.2307C32.7811 52 33.2314 52.45 33.2314 53Z" fill="#4FA4E1"/>
<path d="M12.2839 29L8.50732 25.226C8.11605 24.836 8.11605 24.202 8.50732 23.812C8.89858 23.421 9.53102 23.421 9.92229 23.812L12.1498 26.038L16.4517 20.879C16.806 20.455 17.4364 20.398 17.8607 20.751C18.285 21.104 18.343 21.735 17.9888 22.159L12.2839 29Z" fill="#0A7CCD"/>
<path d="M12.2839 42L8.50732 38.226C8.11605 37.836 8.11605 37.202 8.50732 36.812C8.89858 36.421 9.53102 36.421 9.92229 36.812L12.1498 39.038L16.4517 33.879C16.806 33.455 17.4364 33.398 17.8607 33.751C18.285 34.104 18.343 34.735 17.9888 35.159L12.2839 42Z" fill="#0A7CCD"/>
<path d="M12.2839 55L8.50732 51.226C8.11605 50.836 8.11605 50.203 8.50732 49.812C8.89858 49.421 9.53102 49.421 9.92229 49.812L12.1498 52.038L16.4517 46.879C16.806 46.455 17.4364 46.398 17.8607 46.751C18.285 47.104 18.343 47.735 17.9888 48.159L12.2839 55Z" fill="#0A7CCD"/>
<path d="M64.2524 56H54.2456V59H64.2524V56Z" fill="#084673"/>
<path d="M59.249 57H54.2456V59H59.249V57Z" fill="#0466AC"/>
<path d="M59.2621 7.98399L57.4038 11.883C57.9162 12.561 58.5566 12.984 59.2621 12.984C59.9676 12.984 60.608 12.561 61.1204 11.883L59.2621 7.98399Z" fill="#4A1410"/>
<path d="M61.7507 20C60.5959 20 59.6233 19.218 59.3351 18.155C59.3091 18.058 59.188 18.058 59.162 18.155C58.8748 19.218 57.9021 20 56.7473 20C55.6946 20 54.793 19.35 54.4237 18.43C54.3847 18.332 54.2456 18.359 54.2456 18.464V57H64.2524V18.464C64.2524 18.359 64.1133 18.332 64.0743 18.43C63.7051 19.35 62.8035 20 61.7507 20Z" fill="#095993"/>
<path d="M54.2456 57V18.494C54.2456 18.382 54.3917 18.354 54.4357 18.457C54.811 19.363 55.7046 20 56.7473 20C57.9071 20 58.8828 19.211 59.165 18.142C59.18 18.089 59.249 18.096 59.249 18.149V57H54.2456Z" fill="#0A7CCD"/>
<path d="M54.2456 59V61C54.2456 62.657 55.5895 64 57.2477 64H59.249V59H54.2456Z" fill="white"/>
</svg>
