<svg width="65" height="62" fill="none" xmlns="http://www.w3.org/2000/svg"><path d="M64.418 27c0-5.885-3.638-10.913-8.785-12.983C51.555 4.05 44.966 0 36.9 0a19.49 19.49 0 00-17.381 10.637A7.976 7.976 0 0016.385 10c-4.317 0-7.827 3.417-7.99 7.692C3.726 19.336.374 23.771.374 29c0 6.627 5.376 12 12.008 12h40.027s12.009-2.226 12.009-14z" fill="#4FA4E1"/><path d="M36.899 0a19.49 19.49 0 00-17.381 10.637C14.389 8.455 8.609 12.08 8.394 17.692 3.726 19.336.374 23.771.374 29c0 6.294 4.85 11.446 11.018 11.95l37.12-37.096C45.18 1.196 41.259 0 36.9 0z" fill="#57B1F1"/><path d="M15.884 58.333a3.668 3.668 0 003.67 3.666h25.685a3.668 3.668 0 003.668-3.666V40a3.668 3.668 0 00-3.668-3.667H19.554A3.668 3.668 0 0015.884 40v18.333z" fill="#0A7CCD"/><path d="M63.334 34.333H57.83v-4.417c0-3.538-2.88-6.417-6.421-6.417-3.54 0-6.422 2.879-6.422 6.417v6.417h-5.504v-6.417c0-6.57 5.35-11.916 11.926-11.916 6.575 0 11.925 5.346 11.925 11.917v4.416z" fill="#095993"/><path d="M34.906 44.921a3.09 3.09 0 00-6.179 0c0 1.187.678 2.206 1.661 2.723l-1.66 8.856h6.178l-1.662-8.856a3.076 3.076 0 001.662-2.723z" fill="#084673"/></svg>