<svg width="65" height="64" fill="none" xmlns="http://www.w3.org/2000/svg"><path d="M64.583 50.727a2.91 2.91 0 01-2.91 2.909H3.45a2.91 2.91 0 01-2.91-2.909V10a2.91 2.91 0 012.91-2.909h58.222A2.91 2.91 0 0164.583 10v40.727z" fill="#4FA4E1"/><path d="M41.294 53.637H23.827v7.454h17.467v-7.454z" fill="#A5CCE8"/><path d="M47.116 62.546c0 .803-.651 1.454-1.456 1.454H19.461a1.455 1.455 0 110-2.909h26.2c.804 0 1.455.651 1.455 1.455zm17.467-11.819V42H.54v8.728a2.91 2.91 0 002.911 2.909h58.222a2.911 2.911 0 002.911-2.91z" fill="#fff"/><path d="M32.561 51.909A3.915 3.915 0 0128.65 48a3.915 3.915 0 013.912-3.909A3.915 3.915 0 0136.473 48a3.915 3.915 0 01-3.912 3.909zm0-5.818c-1.053 0-1.91.856-1.91 1.909a1.911 1.911 0 003.82 0 1.912 1.912 0 00-1.91-1.909z" fill="#A5CCE8"/><path d="M.54 10v32h19.737L55.21 7.091H3.45A2.91 2.91 0 00.54 10z" fill="#57B1F1"/><path d="M32.561 32c8.843 0 16.011-7.163 16.011-16S41.404 0 32.562 0C23.718 0 16.55 7.163 16.55 16s7.169 16 16.011 16z" fill="#fff"/><path d="M42.467 17.306a1.32 1.32 0 00-1.219-.813h-3.411V7.265c0-.728-.59-1.318-1.32-1.318h-7.914c-.728 0-1.318.591-1.318 1.318v9.228h-3.412a1.317 1.317 0 00-.933 2.25l8.662 7.925a1.32 1.32 0 001.866 0l8.714-7.925c.377-.378.49-.944.285-1.437z" fill="#095993"/></svg>