<svg width="65" height="64" fill="none" xmlns="http://www.w3.org/2000/svg"><path d="M.209 3.84A3.84 3.84 0 014.05 0h28.18l16.01 13.44v46.72A3.84 3.84 0 0144.398 64H4.05a3.841 3.841 0 01-3.84-3.84V3.84z" fill="#fff"/><path d="M32.23 0v9.6c0 2.121 1.72 3.84 3.843 3.84h12.169L32.23 0z" fill="#4FA4E1"/><path d="M54.246 18.5L59.249 8l5.003 10.5V57H54.246V18.5z" fill="#fff"/><path d="M64.252 24v-5.5L59.25 8v16h5.003zm0 37a3 3 0 01-3.002 3h-4.002a3 3 0 01-3.002-3v-2h10.006v2z" fill="#FFEFED"/><path d="M39.236 22c0 .55-.45 1-1.001 1h-15.01c-.55 0-1.001-.45-1.001-1s.45-1 1-1h15.01c.551 0 1.002.45 1.002 1zm-6.005 5c0 .55-.45 1-1 1h-9.006c-.55 0-1.001-.45-1.001-1s.45-1 1-1h9.007c.55 0 1 .45 1 1zm6.005 8c0 .55-.45 1-1.001 1h-15.01c-.55 0-1.001-.45-1.001-1s.45-1 1-1h15.01c.551 0 1.002.45 1.002 1zm-6.005 5c0 .55-.45 1-1 1h-9.006c-.55 0-1.001-.45-1.001-1s.45-1 1-1h9.007c.55 0 1 .45 1 1zm6.005 8c0 .55-.45 1-1.001 1h-15.01c-.55 0-1.001-.45-1.001-1s.45-1 1-1h15.01c.551 0 1.002.45 1.002 1zm-6.005 5c0 .55-.45 1-1 1h-9.006c-.55 0-1.001-.45-1.001-1s.45-1 1-1h9.007c.55 0 1 .45 1 1z" fill="#4FA4E1"/><path d="M12.284 29l-3.777-3.774a1 1 0 111.415-1.414l2.228 2.226 4.302-5.159a.999.999 0 111.537 1.28L12.284 29zm0 13l-3.777-3.774a1 1 0 111.415-1.414l2.228 2.226 4.302-5.159a.999.999 0 111.537 1.28L12.284 42zm0 13l-3.777-3.774a1 1 0 111.415-1.414l2.228 2.226 4.302-5.159a.999.999 0 111.537 1.28L12.284 55z" fill="#0A7CCD"/><path d="M64.252 56H54.246v3h10.006v-3z" fill="#084673"/><path d="M59.249 57h-5.003v2h5.003v-2z" fill="#0466AC"/><path d="M59.262 7.984l-1.858 3.899c.512.678 1.153 1.101 1.858 1.101.706 0 1.346-.423 1.858-1.101l-1.858-3.899z" fill="#4A1410"/><path d="M61.75 20a2.503 2.503 0 01-2.415-1.845c-.026-.097-.147-.097-.173 0a2.504 2.504 0 01-4.738.275.092.092 0 00-.178.034V57h10.006V18.464a.092.092 0 00-.178-.034A2.502 2.502 0 0161.751 20z" fill="#095993"/><path d="M54.246 57V18.494c0-.112.146-.14.19-.037a2.501 2.501 0 004.729-.315c.015-.053.084-.046.084.007V57h-5.003z" fill="#0A7CCD"/><path d="M54.246 59v2a3 3 0 003.002 3h2.001v-5h-5.003z" fill="#fff"/></svg>