<svg width="65" height="64" fill="none" xmlns="http://www.w3.org/2000/svg"><path d="M52.065 52.01c-.019 3.995.005 7.995-.01 11.99-5.46-5.84-10.916-11.68-16.367-17.528 1.09-.857 1.851-2.02 2.63-3.146.925.211 1.798.608 2.72.813 1.804.407 3.752.132 5.348-.8 2.14-1.22 3.47-3.58 3.643-6.007 4.703 4.859 9.35 9.778 14.03 14.665-3.996.02-7.995-.006-11.994.013zM15.761 19.396c-.888-1.241-1.8-2.463-2.673-3.716-.457-.684-.128-1.691.651-1.966 1.43-.519 2.889-.958 4.336-1.425 1.025-.354 1.796-1.333 1.934-2.406.056-1.628-.019-3.258.043-4.883.04-.815.903-1.404 1.682-1.175 1.458.43 2.895.932 4.35 1.384 1.18.373 2.561-.134 3.248-1.152.763-1.069 1.546-2.127 2.315-3.193.235-.342.525-.679.935-.8.58-.207 1.21.117 1.55.597.852 1.148 1.689 2.308 2.534 3.466.709.977 2.06 1.438 3.215 1.076 1.45-.468 2.889-.96 4.34-1.395.793-.23 1.642.39 1.677 1.205.03 1.495.038 2.993.025 4.488-.026 1.188.775 2.33 1.881 2.75 1.473.484 2.963.934 4.421 1.46.771.274 1.093 1.283.643 1.959-.854 1.26-1.787 2.47-2.673 3.707-.653.922-.675 2.236-.085 3.194.898 1.267 1.842 2.504 2.726 3.777.472.666.218 1.688-.557 2.001-1.454.525-2.94.96-4.402 1.466-1.038.347-1.824 1.343-1.939 2.425-.026 1.59-.013 3.178-.036 4.767.006.843-.848 1.522-1.67 1.289-1.46-.416-2.89-.934-4.331-1.378-1.13-.376-2.477.057-3.182 1.015-.91 1.216-1.78 2.464-2.7 3.674-.498.663-1.578.67-2.082.008-.924-1.21-1.795-2.455-2.71-3.68-.72-.974-2.098-1.39-3.246-.987-1.388.441-2.767.908-4.16 1.33-.843.304-1.784-.374-1.786-1.262-.017-1.465-.01-2.924-.006-4.39.025-1.22-.797-2.4-1.95-2.799-1.437-.488-2.89-.934-4.325-1.427-.79-.251-1.134-1.286-.668-1.968.84-1.268 1.778-2.468 2.662-3.706.698-.962.696-2.365.013-3.33zm-3.271 19.55c.8 3.06 3.736 5.389 6.913 5.374 1.567.077 3.012-.585 4.486-.998 1.043 1.474 2.109 3.022 3.75 3.895-5.204 5.595-10.412 11.186-15.614 16.777-.015-3.996.01-7.99-.011-11.986-4-.026-8 .008-11.998-.013 4.16-4.343 8.268-8.746 12.474-13.048z" fill="#4FA4E1"/></svg>