<svg width="65" height="64" fill="none" xmlns="http://www.w3.org/2000/svg"><path d="M32.726 64C15.068 64 .704 49.645.704 32S15.07 0 32.726 0c17.657 0 32.022 14.355 32.022 32S50.383 64 32.726 64z" fill="#4FA4E1"/><path d="M32.577 0C15 0 .704 14.289.704 31.85c0 9.04 3.794 17.205 9.866 23.007L55.599 9.86C49.79 3.79 41.622 0 32.577 0z" fill="#57B1F1"/><path d="M46.712 45.613c-2.934 3.889-6.575 6.501-12.171 6.501-8.043 0-13.693-5.279-15.758-13.168H15.85c-1.304 0-2.336-1.056-2.336-2.39 0-1.278 1.032-2.39 2.336-2.39h2.12c-.054-.666-.054-1.388-.054-2.11 0-.834 0-1.723.109-2.556H15.85a2.333 2.333 0 01-2.336-2.335c0-1.333 1.032-2.389 2.336-2.389h3.043c2.119-7.5 7.715-12.89 15.432-12.89 5.759 0 9.236 2.333 12.061 5.667.436.444.871 1.277.871 2.277 0 1.778-1.467 3.223-3.207 3.223-1.14 0-1.901-.556-2.336-1.111-2.065-2.556-4.184-3.945-7.553-3.945-3.913 0-6.847 2.611-8.369 6.778h9.672c1.25 0 2.284 1.056 2.284 2.39 0 1.277-1.033 2.334-2.283 2.334H24.76c-.109.777-.109 1.61-.109 2.444 0 .778 0 1.5.054 2.223h10.76c1.25 0 2.283 1.11 2.283 2.389 0 1.333-1.033 2.39-2.283 2.39h-9.78C27.204 43.389 30.303 46 34.596 46c3.26 0 5.38-1.612 7.444-4.223.543-.666 1.304-1.111 2.336-1.111a3.001 3.001 0 012.989 3c0 .835-.327 1.557-.653 1.946z" fill="#fff"/></svg>